Coordinates
version=1
nRows=18
nColumns=22
inDegrees=yes

Units are S.I. units (second, meters, Newtons, ...)
If the header above contains a line with 'inDegrees', this indicates whether rotational values are in degrees (yes) or radians (no).

endheader
time	pelvis_tilt	pelvis_list	pelvis_rotation	pelvis_tx	pelvis_ty	pelvis_tz	hip_flexion_r	hip_adduction_r	hip_rotation_r	knee_angle_r	ankle_angle_r	subtalar_angle_r	hip_flexion_l	hip_adduction_l	hip_rotation_l	knee_angle_l	ankle_angle_l	subtalar_angle_l	lumbar_extension	lumbar_bending	lumbar_rotation
      0.01000000	     -1.53006445	     -4.06753344	      0.77442394	      1.04703390	      1.01305309	      0.23545644	      1.41732623	      1.99820237	     -4.09966202	    -13.27259700	     10.16877909	      2.83025262	     -1.69742148	     -6.92928198	    -10.51288208	     -8.17504020	     10.99590331	      0.51420566	     -2.54690586	      0.88038565	     -0.82781354
      0.02000000	     -1.52586200	     -4.07640163	      0.77773930	      1.04705336	      1.01306284	      0.23553140	      1.39602266	      2.01318662	     -4.10491312	    -13.24221152	     10.16863999	      2.83792610	     -1.69973735	     -6.94452450	    -10.51853536	     -8.17935580	     10.99512375	      0.51862500	     -2.54337628	      0.87106357	     -0.81491201
      0.03000000	     -1.52439782	     -4.08024342	      0.77059499	      1.04703670	      1.01306591	      0.23562074	      1.39354528	      2.02191979	     -4.10728802	    -13.23762299	     10.16777577	      2.83921123	     -1.70079793	     -6.95318776	    -10.51724515	     -8.18153815	     10.99541349	      0.51906318	     -2.54312374	      0.85685735	     -0.81603082
      0.04000000	     -1.50900909	     -4.11430584	      0.76956208	      1.04705161	      1.01309586	      0.23571366	      1.34807101	      2.06692171	     -4.09405419	    -13.18058492	     10.13374769	      2.85703937	     -1.70928443	     -6.99837408	    -10.52660145	     -8.19982684	     11.01192281	      0.53051711	     -2.55509842	      0.87421239	     -0.80350182
      0.05000000	     -1.50849456	     -4.11973399	      0.76196930	      1.04704255	      1.01310091	      0.23579874	      1.33934047	      2.07691900	     -4.10105781	    -13.16269947	     10.13290304	      2.85774737	     -1.70643181	     -7.00958865	    -10.52393360	     -8.20906109	     11.01279941	      0.53218105	     -2.55316611	      0.85667891	     -0.78581419
      0.06000000	     -1.50954728	     -4.12377123	      0.74802620	      1.04701927	      1.01310447	      0.23587657	      1.33829399	      2.08409269	     -4.10477894	    -13.15447929	     10.13234507	      2.85805747	     -1.70538027	     -7.01755972	    -10.52223234	     -8.21228395	     11.01325217	      0.53234251	     -2.55440471	      0.84169458	     -0.78649719
      0.07000000	     -1.51402942	     -4.13240414	      0.73301551	      1.04703444	      1.01310797	      0.23594266	      1.31827371	      2.09675271	     -4.10495147	    -13.10518262	     10.12332798	      2.85837863	     -1.69277421	     -7.03188784	    -10.52683797	     -8.23743048	     11.01714499	      0.53396255	     -2.54311806	      0.82904302	     -0.75309146
      0.08000000	     -1.52304618	     -4.15935814	      0.69721652	      1.04703057	      1.01310958	      0.23604478	      1.30825117	      2.13215151	     -4.05420639	    -13.06120971	     10.07584304	      2.85534553	     -1.67989215	     -7.06714838	    -10.57257984	     -8.25859023	     11.04113328	      0.54236453	     -2.53218930	      0.84132520	     -0.73095743
      0.09000000	     -1.53058346	     -4.16488584	      0.67222868	      1.04702965	      1.01310879	      0.23609703	      1.30140492	      2.13834586	     -4.05622501	    -13.02949423	     10.07435450	      2.85320005	     -1.67187186	     -7.07512020	    -10.57892433	     -8.27011684	     11.04318432	      0.54522208	     -2.52381832	      0.83219295	     -0.70830117
      0.10000000	     -1.54442378	     -4.17170017	      0.63877486	      1.04704798	      1.01310546	      0.23615140	      1.29332332	      2.14682598	     -4.04109448	    -12.98309790	     10.06221449	      2.85205468	     -1.66074292	     -7.08366904	    -10.60296167	     -8.28065240	     11.04824796	      0.54829370	     -2.50260118	      0.82796454	     -0.68275180
      0.11000000	     -1.56489522	     -4.18385872	      0.59440306	      1.04706389	      1.01309511	      0.23622647	      1.29329544	      2.16216688	     -4.00628440	    -12.93771344	     10.04028898	      2.85174843	     -1.64835543	     -7.09769172	    -10.64537633	     -8.28326943	     11.05395594	      0.55260683	     -2.47576685	      0.83060197	     -0.65349168
      0.12000000	     -1.58940672	     -4.20336811	      0.53283046	      1.04705884	      1.01308011	      0.23632877	      1.30782366	      2.18654153	     -3.94208749	    -12.90958158	     10.00950040	      2.85080116	     -1.63228283	     -7.12005442	    -10.70745713	     -8.28975113	     11.05970864	      0.56171609	     -2.44603354	      0.84557459	     -0.61569374
      0.13000000	     -1.60768204	     -4.20824308	      0.49861099	      1.04707558	      1.01307324	      0.23637156	      1.30256055	      2.19131571	     -3.94047052	    -12.86053697	     10.00747835	      2.85145911	     -1.62497874	     -7.12358472	    -10.72952365	     -8.28303470	     11.06156926	      0.56402286	     -2.42122619	      0.84683871	     -0.59799110
      0.14000000	     -1.64021264	     -4.22684248	      0.43527547	      1.04708459	      1.01305395	      0.23646827	      1.31452275	      2.21491973	     -3.87171760	    -12.81265147	      9.97049442	      2.85905604	     -1.60652235	     -7.14287989	    -10.79572083	     -8.27906042	     11.05701139	      0.57170379	     -2.37902435	      0.86751508	     -0.56530348
      0.15000000	     -1.66989009	     -4.23900129	      0.38554568	      1.04709683	      1.01303561	      0.23653522	      1.31971307	      2.22916678	     -3.83815399	    -12.75927323	      9.95429406	      2.86523132	     -1.59054654	     -7.15436250	    -10.84574025	     -8.27047488	     11.05953292	      0.57784319	     -2.34049714	      0.88429067	     -0.54510175
      0.16000000	     -1.69196615	     -4.24249300	      0.35125342	      1.04711666	      1.01302547	      0.23657145	      1.31251669	      2.23217111	     -3.83889822	    -12.70015939	      9.95220468	      2.86840184	     -1.58270765	     -7.15504632	    -10.87071088	     -8.25668556	     11.05997045	      0.57929063	     -2.31047849	      0.89308278	     -0.53802503
      0.17000000	     -1.71998031	     -4.24959552	      0.31186376	      1.04713980	      1.01301084	      0.23661721	      1.30762039	      2.24060455	     -3.81664254	    -12.63336432	      9.93618194	      2.87552010	     -1.57002741	     -7.15996657	    -10.90980092	     -8.24144654	     11.05563305	      0.58141833	     -2.27196095	      0.90915738	     -0.54005928
      0.18000000	     -1.74857647	     -4.25951042	      0.27077870	      1.04715468	      1.01299646	      0.23666258	      1.30442477	      2.25240026	     -3.78549434	    -12.56747963	      9.91335337	      2.88486382	     -1.55349805	     -7.16831893	    -10.95095875	     -8.23243391	     11.05119303	      0.58391473	     -2.23362361	      0.93056352	     -0.54178721
